<svg width="500" height="500" viewBox="0 0 500 500" fill="none" xmlns="http://www.w3.org/2000/svg">
<path d="M145.833 0C217.337 0 276.819 51.4614 289.268 119.367C308.814 109.638 330.851 104.167 354.167 104.167C377.179 104.167 395.833 122.821 395.833 145.833C395.833 168.845 377.179 187.5 354.167 187.5C319.649 187.5 291.667 215.482 291.667 250V354.167C291.667 388.684 319.649 416.667 354.167 416.667C388.684 416.667 416.667 388.684 416.667 354.167V302.083C416.667 279.071 435.321 260.417 458.333 260.417C481.345 260.417 500 279.071 500 302.083V354.167C500 434.708 434.708 500 354.167 500C273.625 500 208.333 434.708 208.333 354.167V145.833C208.333 111.316 180.351 83.3333 145.833 83.3333C111.316 83.3333 83.3333 111.316 83.3333 145.833V309.896C83.3333 332.908 64.6785 351.562 41.6667 351.562C18.6548 351.562 0 332.908 0 309.896V145.833C4.29622e-06 65.2918 65.2918 0 145.833 0Z" fill="#0D0B0E"/>
</svg>
