<svg width="480" height="480" viewBox="0 0 480 480" fill="none" xmlns="http://www.w3.org/2000/svg">
<path d="M140 0C208.644 0 265.746 49.403 277.697 114.593C296.461 105.253 317.617 100 340 100C362.091 100 380 117.909 380 140C380 162.091 362.091 180 340 180C306.863 180 280 206.863 280 240V340C280 373.137 306.863 400 340 400C373.137 400 400 373.137 400 340V290C400 267.909 417.909 250 440 250C462.091 250 480 267.909 480 290V340C480 417.32 417.32 480 340 480C262.68 480 200 417.32 200 340V140C200 106.863 173.137 80 140 80C106.863 80 80 106.863 80 140V297.5C80 319.591 62.0914 337.5 40 337.5C17.9086 337.5 0 319.591 0 297.5V140C4.12437e-06 62.6801 62.6801 0 140 0Z" fill="#0D0B0E"/>
</svg>
