<svg width="358" height="358" viewBox="0 0 358 358" fill="none" xmlns="http://www.w3.org/2000/svg">
<mask id="mask0_340_1160" style="mask-type:alpha" maskUnits="userSpaceOnUse" x="0" y="0" width="358" height="358">
<path d="M75.9395 358H0V282.061H75.9395V358ZM108.484 325.455H119.333V336.303H108.484V347.152H130.182V336.303H141.03V347.152H151.878V358H86.7881V347.152H97.6367V336.303H86.7881V314.605H108.484V325.455ZM206.122 347.152H195.272V358H173.575V347.152H184.425V336.303H206.122V347.152ZM238.667 358H206.122V347.152H238.667V358ZM358 195.272H347.152V206.122H358V249.515H325.455V260.364H314.605V249.515H303.758V260.364H314.605V271.212L325.455 271.213V282.061H314.605V292.909H336.303V303.758H347.152V292.909L358 292.91V325.455H347.152V314.605H336.303V336.303H314.605V325.455H325.455V303.758H314.605V314.605H303.758V336.303H314.605V358H303.758V347.152H282.061V358H271.212V347.152H260.363V358H249.515V347.152H238.667V325.455H227.818V303.758H216.97V292.909H206.122V260.364H195.272V238.667H206.122V249.515H227.818V260.364H216.97V282.061H249.515V271.212H238.667V249.515H249.515V260.364H260.363V249.515H249.515V238.667H271.212V260.364H282.061V238.667H271.212V227.819H292.909V249.515H303.758V238.667H314.605V216.97H336.303V238.667H347.152V216.97H336.303V206.122H325.455V195.272H336.303V184.425H358V195.272ZM336.303 358H325.455V347.152H336.303V358ZM173.575 325.455H184.425V336.303H173.575V347.152H162.728V314.605H151.878V325.455H130.182V314.605H141.03V303.758H173.575V325.455ZM358 347.152H347.152V336.303H358V347.152ZM11.3906 346.609H64.5488V293.452H11.3906V346.609ZM54.2422 336.303H21.6973V303.758H54.2422V336.303ZM227.818 336.303H216.97V325.455H227.818V336.303ZM271.212 325.455H260.363V336.303H282.061V325.455H292.909V314.605H271.212V325.455ZM206.122 325.455H195.272V292.909H206.122V325.455ZM97.6367 271.212H108.485L108.484 292.909H97.6367V303.758H86.7881V271.212H65.0908V260.364H97.6367V271.212ZM184.425 303.758H173.575V292.91L184.425 292.909V303.758ZM271.212 303.758H303.758V271.212H271.212V303.758ZM195.272 292.909H184.425V282.061H162.728V292.909H141.03V282.061H151.878V271.212H184.425V260.364H195.272V292.909ZM292.909 292.909H282.061V282.061H292.909V292.909ZM358 271.212H347.152V292.909H336.303V260.364H358V271.212ZM130.182 282.061H119.333V271.212H130.182V282.061ZM10.8477 271.212H0V260.364H10.8477V271.212ZM54.2422 271.212H32.5449V260.364H54.2422V271.212ZM119.333 271.212H108.485L108.484 260.364H119.333V271.212ZM151.878 271.212H130.182V260.364H141.03V249.516L151.878 249.515V271.212ZM21.6973 260.364H10.8477V249.516H21.6973V260.364ZM54.2422 238.667H75.9395V249.515H65.0908V260.364H54.2422V249.515H32.5449V216.97H54.2422V238.667ZM130.182 238.667H119.333V249.515H108.484V260.364H97.6367V238.667H108.485V227.819H130.182V238.667ZM173.575 260.364H162.728V249.515H173.575V260.364ZM162.728 249.515H151.878V238.667H162.728V249.515ZM173.575 195.272H184.425V206.122H216.97V216.97H206.122V227.819H184.425V249.515H173.575V227.819H151.878V238.667H141.03V216.97H151.878V195.272H162.728V184.425H151.878V173.575H173.575V195.272ZM238.667 249.515H227.818V238.667H206.122V227.819H216.97V216.97H238.667V249.515ZM10.8477 238.667H0V216.97H10.8477V238.667ZM195.272 130.183V151.879H184.425V173.575H173.575V151.879H162.728V162.728H151.878V151.879H141.03V162.728H130.182V173.575H141.03V184.425H130.182V206.122H141.03V216.97H119.333V195.272H108.485L108.484 184.425H119.333V173.575H108.485L108.484 184.425H97.6367V206.122H86.7881V216.97H97.6367V227.819H65.0908V216.97H75.9395V206.122H43.3945V173.575H32.5449V162.728H54.2422V173.575H75.9395V184.425H65.0908V195.272H75.9395V184.425H86.7881V162.728H97.6367V173.575H108.485L108.484 151.879H75.9395V141.03H108.485V130.183H130.182V141.03H119.333V151.879H130.182V141.03H151.878V130.183L173.575 130.182V141.03H184.425V130.182L195.272 130.183ZM303.758 151.88V162.728H292.909V195.272H282.061V206.122H292.909V195.272H303.758V173.575H314.605V184.425H325.455V195.272H314.605V216.97H303.758V206.122H292.909V216.97H271.212V227.819H249.515V206.122H271.212V195.272H249.515V184.425H271.212V162.728H282.061V151.879L303.758 151.88ZM32.5449 216.97H10.8477V206.122H21.6973V195.272H32.5449V216.97ZM108.484 216.97H97.6367V206.122H108.484V216.97ZM162.728 216.97H173.575V206.122H162.728V216.97ZM10.8477 206.122H0V195.272H10.8477V206.122ZM21.6973 195.272H10.8477V184.425H21.6973V195.272ZM216.97 151.879H238.667V162.728H260.363V173.575H249.515V184.425H227.818V195.272H216.97V173.575H227.818V162.728H206.122V141.03H216.97V151.879ZM32.5449 184.425H21.6973V173.575H32.5449V184.425ZM206.122 184.425H195.272V173.575H206.122V184.425ZM292.909 97.6367H303.758V108.485H314.605V86.7881H325.455V97.6367H336.303V86.7881H358V119.333H347.152V130.182L358 130.183V141.03H347.152V151.879H325.455V162.728H336.303V184.425H325.455V173.575H314.605V141.03H292.909V130.182H282.061V151.879H271.212V162.728H260.363V141.03H271.212V130.182H260.363V119.333H238.667V108.485H249.515V97.6367H260.363V108.485H282.061V86.7881H292.909V97.6367ZM32.5449 151.88V162.728H21.6973V151.879L32.5449 151.88ZM75.9395 162.728H65.0908V151.88L75.9395 151.879V162.728ZM21.6973 119.333H10.8477V141.03H21.6973V151.879H0V108.485H21.6973V119.333ZM54.2422 151.879H43.3945V141.03H54.2422V151.879ZM260.363 141.03H249.515V151.879H238.667V130.183L260.363 130.182V141.03ZM75.9395 141.03H65.0908V130.182H75.9395V141.03ZM227.818 141.03H216.97V130.182H206.122V119.333H216.97V108.485H227.818V141.03ZM336.303 108.485H325.455V141.03H336.303V108.485H347.152V97.6367H336.303V108.485ZM32.5449 130.182H21.6973V119.333H32.5449V130.182ZM43.3945 97.6367H54.2422V86.7881H86.7881V97.6367H65.0908V108.485H86.7881V119.333H97.6367V130.182H75.9395V119.333H65.0908V130.182H54.2422V119.333H32.5449V108.485H21.6973V86.7881H43.3945V97.6367ZM184.425 108.485H195.272V119.333H184.425V130.182H173.575V97.6367H184.425V108.485ZM303.758 130.182H314.605V119.333H303.758V130.182ZM130.182 119.333H119.333V108.485H130.182V119.333ZM97.6367 75.9395H108.485L108.484 97.6367H119.333V86.7881H141.03V97.6367H151.878V86.7881H162.728V108.485H151.878V119.333H141.03V108.485H130.182V97.6367H119.333V108.485H97.6367V86.7881H86.7881V65.0918H97.6367V75.9395ZM227.818 86.7881H216.97V108.485H195.272V97.6367H184.425V75.9395H195.272V86.7881H206.122V75.9395H216.97V65.0918H227.818V86.7881ZM238.667 108.485H227.818V86.7881H238.667V108.485ZM10.8477 97.6367H0V86.7881H10.8477V97.6367ZM75.9395 75.9395H0V0H75.9395V75.9395ZM162.728 10.8477H130.182V43.3945H162.728V32.5459L173.575 32.5449V43.3945H184.425V32.5449H195.272V43.3945H206.122V54.2422H162.728V75.9395H151.878V54.2422H130.182V65.0918H119.333V75.9395H108.485L108.484 65.0918H97.6367V43.3945H119.333V32.5449H97.6367V21.6973H108.485V0H162.728V10.8477ZM141.03 75.9395H130.182V65.0918H141.03V75.9395ZM184.425 75.9395H173.575V65.0918H184.425V75.9395ZM206.122 75.9395H195.272V65.0918H206.122V75.9395ZM249.515 75.9395H238.667V65.0918H249.515V75.9395ZM227.818 10.8477H249.515V0H260.363V10.8477L271.212 10.8496V75.9395H260.363V43.3945H249.515V54.2422H238.667V65.0918H227.818V43.3945H238.667V32.5459L249.515 32.5449V21.6973H227.818V43.3945H206.122V32.5449H216.97V10.8477H206.122V0H227.818V10.8477ZM358 75.9395H282.061V0H358V75.9395ZM216.97 65.0918H206.122V54.2422H216.97V65.0918ZM11.3906 64.5488H64.5488V11.3916H11.3906V64.5488ZM293.451 64.5488H346.609V11.3916H293.451V64.5488ZM54.2422 54.2422H21.6973V21.6973H54.2422V54.2422ZM336.303 54.2422H303.758V21.6973H336.303V54.2422ZM97.6367 43.3945H86.7881V32.5459L97.6367 32.5449V43.3945ZM151.878 32.5449H141.03V21.6973H151.878V32.5449ZM184.425 32.5449H173.575V21.6973H184.425V32.5449ZM206.122 32.5449H195.272V10.8477H206.122V32.5449ZM97.6367 21.6973H86.7881V0H97.6367V21.6973ZM195.272 10.8477H184.425V0H195.272V10.8477Z" fill="black"/>
</mask>
<g mask="url(#mask0_340_1160)">
<rect x="-0.725708" y="-0.115234" width="358.004" height="358.002" fill="#1C171D"/>
<g filter="url(#filter0_f_340_1160)">
<rect width="430.36" height="285.179" rx="142.589" transform="matrix(0.819298 -0.573369 0.577603 0.816318 68.6091 165.274)" fill="#ED4B9E"/>
</g>
<g filter="url(#filter1_f_340_1160)">
<rect x="98.3965" y="269.261" width="176.086" height="176.086" rx="88.0431" fill="#BF6AA0"/>
</g>
<g filter="url(#filter2_f_340_1160)">
<rect x="-11.2205" y="202.791" width="116.613" height="116.613" rx="58.3067" fill="#BF6AA0"/>
</g>
<g filter="url(#filter3_f_340_1160)">
<rect width="218.226" height="271.868" rx="109.113" transform="matrix(0.498339 -0.866982 0.869335 0.494224 -151.32 88.9507)" fill="#31D0AA"/>
</g>
</g>
<defs>
<filter id="filter0_f_340_1160" x="4.84412" y="-145.58" width="644.843" height="607.75" filterUnits="userSpaceOnUse" color-interpolation-filters="sRGB">
<feFlood flood-opacity="0" result="BackgroundImageFix"/>
<feBlend mode="normal" in="SourceGraphic" in2="BackgroundImageFix" result="shape"/>
<feGaussianBlur stdDeviation="60" result="effect1_foregroundBlur_340_1160"/>
</filter>
<filter id="filter1_f_340_1160" x="48.3965" y="219.261" width="276.086" height="276.086" filterUnits="userSpaceOnUse" color-interpolation-filters="sRGB">
<feFlood flood-opacity="0" result="BackgroundImageFix"/>
<feBlend mode="normal" in="SourceGraphic" in2="BackgroundImageFix" result="shape"/>
<feGaussianBlur stdDeviation="25" result="effect1_foregroundBlur_340_1160"/>
</filter>
<filter id="filter2_f_340_1160" x="-211.22" y="2.79102" width="516.613" height="516.613" filterUnits="userSpaceOnUse" color-interpolation-filters="sRGB">
<feFlood flood-opacity="0" result="BackgroundImageFix"/>
<feBlend mode="normal" in="SourceGraphic" in2="BackgroundImageFix" result="shape"/>
<feGaussianBlur stdDeviation="100" result="effect1_foregroundBlur_340_1160"/>
</filter>
<filter id="filter3_f_340_1160" x="-211.443" y="-160.631" width="465.341" height="444.328" filterUnits="userSpaceOnUse" color-interpolation-filters="sRGB">
<feFlood flood-opacity="0" result="BackgroundImageFix"/>
<feBlend mode="normal" in="SourceGraphic" in2="BackgroundImageFix" result="shape"/>
<feGaussianBlur stdDeviation="50" result="effect1_foregroundBlur_340_1160"/>
</filter>
</defs>
</svg>
