<svg width="358" height="359" viewBox="0 0 358 359" fill="none" xmlns="http://www.w3.org/2000/svg">
<mask id="mask0_380_1486" style="mask-type:alpha" maskUnits="userSpaceOnUse" x="0" y="0" width="358" height="359">
<path d="M67.7295 359H0V291.081H67.7295V359ZM87.0811 359H77.4062V349.298H87.0811V359ZM125.783 329.892H116.108V339.595H145.135L145.136 329.892H135.46V320.189H145.136V310.486H164.487V329.892H154.811V349.297H145.136V359H116.108V349.297H106.433V359H96.7568V329.892H106.433V310.486H125.783V329.892ZM174.162 359H164.487V349.298L174.162 349.297V359ZM203.189 349.298V359H193.513V349.297L203.189 349.298ZM251.567 359H232.217V349.298L241.892 349.297V339.595H251.567V359ZM299.946 359H280.594V349.298L299.946 349.297V359ZM290.271 232.865H309.621V223.162H348.324V232.865H358V252.271H348.324V261.973H338.648V242.567H328.973V232.865H319.298V252.271H299.946V261.973H309.621V271.676H319.298V310.486H328.973V320.189H319.298V329.892H328.973V320.189H338.648V349.297L358 349.298V359H328.973V349.297H319.298V359H309.621V349.297H299.946V339.595H309.621V320.189H299.946V339.595H270.919V349.297H261.243V329.892H280.594V320.189H270.919V310.486H261.243V320.189H251.567V300.784H241.892V310.486H232.217V291.081H222.54V281.378H232.217V271.676H251.567V281.378H241.892V291.081H261.243V300.784H270.919V271.676H280.594V261.973H270.919V232.865H280.594V223.162H290.271V232.865ZM183.838 339.595H193.513V349.297H174.162V329.892H183.838V339.595ZM222.54 349.297H212.864V339.595H222.54V349.297ZM10.1592 348.812H57.5703V301.269H10.1592V348.812ZM48.3789 339.595H19.3516V310.486H48.3789V339.595ZM96.7568 329.892H87.0811V339.595H77.4062V320.189H96.7568V329.892ZM232.217 329.892H241.892V339.595H222.54V310.486H232.217V329.892ZM212.864 329.892H203.189V320.189H212.864V329.892ZM358 329.892H348.324V320.189H358V329.892ZM203.189 320.189H193.513V310.486H203.189V320.189ZM348.324 281.378L358 281.379V310.486H348.324V320.189H338.648V300.784H328.973V271.676H348.324V281.378ZM106.433 194.054H116.108V203.757H125.783V213.459H116.108V223.162H125.783V232.865H135.46V203.757H145.136V223.162H154.811V232.865H145.136V242.567H125.783V291.081H116.108V300.784H87.0811V310.486H77.4062V281.378H87.0811V291.081H106.433V281.378H116.108V271.676H106.433V281.378H87.0811V271.676H96.7568V261.973H116.108V252.271H96.7568V242.567H106.433V223.162H96.7568V213.459H87.0811V261.973H77.4062V281.378H58.0537V271.676H67.7295V261.973H58.0537V271.676H48.3789V281.378H38.7021V261.973H48.3789V252.271H77.4062V242.567H58.0537V232.865H67.7295V223.162H77.4062V213.459H67.7295V203.757H58.0537V194.054H77.4062V203.757H87.0811V194.054H96.7568V184.352H106.433V194.054ZM154.811 271.676H145.136V281.378L154.811 281.379V291.081H164.487V300.784H145.136V310.486H125.783V300.784H135.46V261.973H154.811V271.676ZM183.838 300.784H193.513V310.486H164.487V300.784H174.162V291.081H183.838V300.784ZM212.864 310.486H203.189V300.784H212.864V310.486ZM280.594 310.486H309.621V281.378H280.594V310.486ZM232.217 252.271H222.54V281.378H212.864V291.081H203.189V300.784H193.513V281.378H203.189V271.676H193.513V281.378H174.162V261.973H164.487V252.271H183.838V261.973H212.864V242.567H232.217V252.271ZM222.54 300.784H212.864V291.081H222.54V300.784ZM299.946 300.784H290.271V291.081H299.946V300.784ZM9.67578 271.676H0V261.973H9.67578V271.676ZM358 271.676H348.324V261.973H358V271.676ZM38.7021 261.973H9.67578V252.271H29.0273V242.567H38.7021V261.973ZM251.567 223.162H270.919V232.865H261.243V261.973H251.567V252.271H241.892V242.567H232.217V232.865H241.892V203.757H251.567V223.162ZM328.973 261.973H319.298V252.271H328.973V261.973ZM280.594 252.271H290.271V242.567H280.594V252.271ZM19.3516 203.757H29.0273V213.459H19.3516V232.865H29.0273V242.567H9.67578V194.054H19.3516V203.757ZM164.487 242.567H154.811V232.865H164.487V242.567ZM212.864 242.567H203.189V232.865H212.864V242.567ZM58.0537 213.459H48.3789V223.162H58.0537V232.865H29.0273V213.459H38.7021V203.757H58.0537V213.459ZM174.162 232.865H164.487V223.162H174.162V232.865ZM203.189 232.865H193.513V213.459H203.189V232.865ZM67.7295 223.162H58.0537V213.459H67.7295V223.162ZM174.162 164.946H183.838V155.243H193.513V174.648H174.162V184.352H183.838V194.054H193.513V174.648H203.189V164.946H212.864V155.243H232.217V164.946H222.54V174.648H232.217V164.946H241.892V155.243H251.567V174.648H241.892V194.054H232.217V184.352H222.54V194.054H212.864V184.352H203.189V194.054H212.864V213.459H203.189V203.757H193.513V213.459H183.838V223.162H174.162V213.459H154.811V203.757H145.136V184.352H164.487V155.243H174.162V164.946ZM232.217 223.162H222.54V194.054H232.217V223.162ZM261.243 19.4053H251.567V29.1084H280.594V48.5137H251.567V38.8105H241.892V87.3242H251.567V58.2158H261.243V67.9189H270.919V58.2158H280.594V97.0273H270.919V77.6221H261.243V97.0273H251.567V106.729H261.243V116.433H270.919V106.729H280.594V97.0273H290.271V106.729H299.946V87.3242H309.621V116.433H299.946V126.135H309.621V116.433H319.298V126.135H328.973V135.838H319.298V155.243H290.271V164.946H299.946V174.648H290.271V184.352H280.594V194.054H290.271V203.757H280.594V223.162H270.919V203.757H251.567V194.054H261.243V184.352H251.567V174.648H261.243V155.243H270.919V135.838H261.243V126.135H241.892V155.243H232.217V116.433H241.892V106.729H203.189V116.433H193.513V106.729H164.487V116.433H154.811V97.0273H164.487V87.3242H174.162V77.6221H183.838V67.9189H193.513V58.2158H203.189V77.6221H193.513V87.3242H183.838V97.0273H193.513V87.3242H203.189V97.0273H212.864V48.5137H222.54V97.0273H232.217V38.8105H222.54V19.4053H241.892V9.70312H251.567V0H261.243V19.4053ZM309.621 223.162H290.271V213.46H309.621V223.162ZM358 184.352H348.324V194.054H338.648V184.352H328.973V213.459H319.298V203.757H299.946V194.054H309.621V174.648H319.298V184.352H328.973V174.648H338.648V164.946H358V184.352ZM348.324 213.459H338.648V203.757H348.324V213.459ZM38.7021 203.757H29.0273V194.054H38.7021V203.757ZM358 203.757H348.324V194.054H358V203.757ZM48.3789 164.946H58.0537V174.648H77.4062V184.352H58.0537V194.054H48.3789V184.352H0V164.946H19.3516V174.648H29.0273V164.946H38.7021V155.243H48.3789V164.946ZM87.0811 194.054H77.4062V184.352H87.0811V194.054ZM135.46 194.054H116.108V184.352H135.46V194.054ZM299.946 194.054H290.271V184.352H299.946V194.054ZM96.7568 184.352H87.0811V155.243H96.7568V184.352ZM135.46 164.946H145.136V174.648H116.108V155.243H135.46V164.946ZM270.919 174.648H280.594V164.946H270.919V174.648ZM338.648 164.946H328.973V174.648H319.298V155.243H338.648V164.946ZM77.4062 135.838H67.7295V126.135H58.0537V135.838H48.3789V145.541H29.0273V164.946H19.3516V145.541H9.67578V135.838H38.7021V126.135H48.3789V116.433H67.7295V106.729H77.4062V135.838ZM77.4062 164.946H58.0537V155.243H77.4062V164.946ZM116.108 155.243H106.433V135.838H116.108V155.243ZM164.487 155.243H154.811V145.541H164.487V155.243ZM193.513 135.838H203.189V126.135H212.864V145.541H203.189V155.243H193.513V145.541H183.838V116.433H193.513V135.838ZM261.243 155.243H251.567V145.541H261.243V155.243ZM358 155.243H348.324V145.541H358V155.243ZM67.7295 145.541H58.0537V135.838H67.7295V145.541ZM135.46 126.135H145.136V116.433H154.811V135.838H135.46V145.541H125.783V135.838H116.108V126.135H125.783V116.433H135.46V126.135ZM290.271 145.541H309.621V135.838H290.271V145.541ZM358 135.838H348.324V145.541H328.973V135.838H338.648V116.433H358V135.838ZM9.67578 87.3242H19.3516V77.6221H38.7021V87.3242H48.3789V77.6221H77.4062V97.0273H67.7295V87.3242H58.0537V97.0273H48.3789V116.433H38.7021V126.135H9.67578V135.838H0V116.433H19.3516V106.729H9.67578V97.0273H0V77.6221H9.67578V87.3242ZM96.7568 135.838H87.0811V126.135H96.7568V135.838ZM174.162 135.838H164.487V116.433H174.162V135.838ZM145.136 67.9189H154.811V97.0273H145.136V87.3242H135.46V97.0273H145.136V106.729H125.783V116.433H116.108V97.0273H106.433V116.433H116.108V126.135H96.7568V116.433H87.0811V106.729H96.7568V87.3242H87.0811V77.6221H77.4062V58.2158H87.0811V67.9189H96.7568V58.2158H106.433V77.6221H116.108V58.2158H125.783V67.9189H135.46V48.5137H145.136V67.9189ZM222.54 126.135H212.864V116.433H222.54V126.135ZM270.919 126.135H280.594V116.433H270.919V126.135ZM328.973 106.729H338.648V116.433H319.298V97.0273H328.973V106.729ZM29.0273 106.729H38.7021V97.0273H29.0273V106.729ZM67.7295 106.729H58.0537V97.0273H67.7295V106.729ZM87.0811 106.729H77.4062V97.0273H87.0811V106.729ZM19.3516 97.0273H29.0273V87.3242H19.3516V97.0273ZM358 87.3242H348.324V97.0273H328.973V87.3242H338.648V77.6221H358V87.3242ZM125.783 87.3242H135.46V77.6221H125.783V87.3242ZM299.946 87.3242H290.271V77.6221H299.946V87.3242ZM328.973 87.3242H319.298V77.6221H328.973V87.3242ZM67.7295 67.9189H0V0H67.7295V67.9189ZM193.513 58.2158H183.838V67.9189H174.162V58.2158H164.487V67.9189H154.811V48.5137H183.838V38.8105H193.513V58.2158ZM358 67.9189H290.271V0H358V67.9189ZM96.7568 58.2158H87.0811V48.5137H96.7568V58.2158ZM116.108 58.2158H106.433V48.5137H116.108V58.2158ZM10.1592 57.7314H57.5703V10.1875H10.1592V57.7314ZM300.43 57.7314H347.841V10.1875H300.43V57.7314ZM48.3789 48.5137H19.3516V19.4053H48.3789V48.5137ZM125.783 38.8105H135.46V48.5137H116.108V29.1084H125.783V38.8105ZM154.811 48.5137H145.136V38.8105H154.811V48.5137ZM338.648 48.5137H309.621V19.4053H338.648V48.5137ZM96.7568 38.8105H77.4062V29.1084H96.7568V38.8105ZM174.162 38.8105H154.811V29.1084H174.162V38.8105ZM116.108 29.1084H96.7568V19.4053H106.433V9.70312H116.108V29.1084ZM183.838 19.4053H193.513V29.1084H174.162V19.4053H164.487V9.70312H183.838V19.4053ZM87.0811 9.70312H96.7568V19.4053H77.4062V0H87.0811V9.70312ZM135.46 19.4053H125.783V9.70312H116.108V0H135.46V19.4053ZM222.54 19.4053H212.864V9.70312H222.54V19.4053ZM280.594 19.4053H270.919V0H280.594V19.4053ZM106.433 9.70312H96.7568V0H106.433V9.70312ZM164.487 9.70312H145.136V0H164.487V9.70312ZM212.864 9.70312H203.189V0H212.864V9.70312Z" fill="black"/>
</mask>
<g mask="url(#mask0_380_1486)">
<rect x="-0.724731" y="0.384766" width="357.516" height="358.512" fill="#1C171D"/>
<g filter="url(#filter0_f_380_1486)">
<rect width="430.168" height="285.32" rx="142.66" transform="matrix(0.818545 -0.574442 0.57653 0.817076 68.5154 166.009)" fill="#ED4B9E"/>
</g>
<g filter="url(#filter1_f_380_1486)">
<rect x="98.2622" y="270.145" width="175.846" height="176.337" rx="87.923" fill="#BF6AA0"/>
</g>
<g filter="url(#filter2_f_380_1486)">
<rect x="-11.2051" y="203.58" width="116.454" height="116.78" rx="58.2271" fill="#BF6AA0"/>
</g>
<g filter="url(#filter3_f_380_1486)">
<rect width="218.386" height="271.682" rx="109.193" transform="matrix(0.497294 -0.867582 0.868741 0.495266 -151.113 89.5774)" fill="#31D0AA"/>
</g>
</g>
<defs>
<filter id="filter0_f_380_1486" x="4.69366" y="-145.084" width="644.251" height="608.208" filterUnits="userSpaceOnUse" color-interpolation-filters="sRGB">
<feFlood flood-opacity="0" result="BackgroundImageFix"/>
<feBlend mode="normal" in="SourceGraphic" in2="BackgroundImageFix" result="shape"/>
<feGaussianBlur stdDeviation="60" result="effect1_foregroundBlur_380_1486"/>
</filter>
<filter id="filter1_f_380_1486" x="48.2622" y="220.145" width="275.846" height="276.337" filterUnits="userSpaceOnUse" color-interpolation-filters="sRGB">
<feFlood flood-opacity="0" result="BackgroundImageFix"/>
<feBlend mode="normal" in="SourceGraphic" in2="BackgroundImageFix" result="shape"/>
<feGaussianBlur stdDeviation="25" result="effect1_foregroundBlur_380_1486"/>
</filter>
<filter id="filter2_f_380_1486" x="-211.205" y="3.58008" width="516.454" height="516.78" filterUnits="userSpaceOnUse" color-interpolation-filters="sRGB">
<feFlood flood-opacity="0" result="BackgroundImageFix"/>
<feBlend mode="normal" in="SourceGraphic" in2="BackgroundImageFix" result="shape"/>
<feGaussianBlur stdDeviation="100" result="effect1_foregroundBlur_380_1486"/>
</filter>
<filter id="filter3_f_380_1486" x="-211.273" y="-160.178" width="464.944" height="444.599" filterUnits="userSpaceOnUse" color-interpolation-filters="sRGB">
<feFlood flood-opacity="0" result="BackgroundImageFix"/>
<feBlend mode="normal" in="SourceGraphic" in2="BackgroundImageFix" result="shape"/>
<feGaussianBlur stdDeviation="50" result="effect1_foregroundBlur_380_1486"/>
</filter>
</defs>
</svg>
