<svg width="358" height="358" viewBox="0 0 358 358" fill="none" xmlns="http://www.w3.org/2000/svg">
<mask id="mask0_362_541" style="mask-type:alpha" maskUnits="userSpaceOnUse" x="0" y="0" width="359" height="358">
<path d="M129.672 332.967C133.271 332.967 136.023 335.719 136.023 339.317V351.649C136.023 355.248 133.271 358 129.672 358C126.073 358 123.321 355.248 123.321 351.649V339.317C123.321 335.719 126.073 332.967 129.672 332.967ZM203.666 320.633C207.265 320.633 210.017 323.385 210.017 326.984V345.298H216C219.599 345.298 222.351 348.051 222.351 351.649C222.351 355.248 219.599 358 216 358H191.332C187.733 358 184.982 355.248 184.981 351.649C184.981 348.051 187.733 345.298 191.332 345.298H197.315V326.984C197.315 323.385 200.067 320.633 203.666 320.633ZM314.657 184.981C318.256 184.982 321.008 187.734 321.008 191.333V197.313H351.65C355.249 197.314 358.001 200.065 358.001 203.664V215.996C358.001 219.595 355.249 222.346 351.65 222.347H333.338V228.327C333.338 231.926 330.585 234.679 326.986 234.679H308.674V258.974H314.657C318.256 258.974 321.008 261.725 321.008 265.324C321.008 268.923 318.256 271.675 314.657 271.675H308.674V283.639H314.657C318.256 283.639 321.008 286.391 321.008 289.989V295.97H326.986C330.585 295.97 333.338 298.722 333.338 302.321V320.633H339.32C342.919 320.633 345.671 323.386 345.671 326.984V339.317C345.671 342.916 342.919 345.669 339.32 345.669C335.721 345.669 332.969 342.916 332.969 339.317V333.335H321.008V351.649C321.008 355.248 318.256 358 314.657 358H302.323C298.724 358 295.972 355.247 295.972 351.648V345.298H295.973V333.335H259.344V339.317C259.344 342.916 256.592 345.669 252.993 345.669H240.663C237.064 345.669 234.312 342.916 234.312 339.317V333.335H228.329C224.73 333.335 221.979 330.583 221.979 326.984V308.672H191.332C187.733 308.672 184.982 305.92 184.981 302.321V284.007H179.003C175.404 284.007 172.652 281.255 172.651 277.656V247.012H160.687V265.324C160.687 268.923 157.935 271.675 154.336 271.675H148.356V277.656C148.356 281.255 145.605 284.007 142.006 284.007C138.407 284.007 135.655 281.255 135.654 277.656V271.675H111.359L105.009 271.676C101.41 271.676 98.6572 268.923 98.6572 265.324V259.344H68.0127C64.4138 259.344 61.6611 256.591 61.6611 252.992C61.6612 249.393 64.4138 246.642 68.0127 246.642H105.009C108.608 246.642 111.359 249.393 111.359 252.992V258.974H147.984V228.327C147.985 224.728 150.737 221.977 154.336 221.977H166.669C170.268 221.977 173.02 224.728 173.021 228.327V234.31H179.003C182.602 234.31 185.354 237.062 185.354 240.661V258.974H191.332C194.931 258.974 197.684 261.725 197.684 265.324V295.97H209.648V289.989C209.648 286.39 212.401 283.639 216 283.639H221.979V271.675H216C212.401 271.675 209.648 268.923 209.648 265.324C209.648 261.725 212.401 258.974 216 258.974H246.642V240.661C246.642 237.062 249.394 234.31 252.993 234.31C256.592 234.31 259.344 237.062 259.344 240.661V246.642H271.309V228.327C271.309 224.728 274.061 221.977 277.66 221.977C281.259 221.977 284.011 224.729 284.011 228.327V246.642H295.973V222.347H289.989C286.391 222.346 283.639 219.595 283.639 215.996C283.639 212.397 286.391 209.645 289.989 209.645H295.972V197.312H295.973V191.333C295.973 187.734 298.724 184.981 302.323 184.981H314.657ZM86.3252 357.629H0V271.305H86.3252V357.629ZM179.003 308.302C182.602 308.302 185.353 311.054 185.354 314.652V339.317C185.354 342.916 182.602 345.669 179.003 345.669H154.336C150.737 345.669 147.984 342.916 147.984 339.317C147.985 335.719 150.737 332.967 154.336 332.967H172.651V314.652C172.651 311.054 175.404 308.302 179.003 308.302ZM12.333 345.297H73.9932V283.637H12.333V345.297ZM129.672 283.639C133.271 283.639 136.023 286.39 136.023 289.989V302.321C136.023 305.92 133.271 308.672 129.672 308.672H123.693V326.984C123.693 330.583 120.941 333.335 117.343 333.335H105.009C101.41 333.335 98.6583 330.583 98.6582 326.984V321.004H98.6572V302.32C98.6573 298.722 101.41 295.97 105.009 295.97H123.321V289.989C123.321 286.39 126.073 283.639 129.672 283.639ZM61.6592 295.971V332.967H24.6631V295.971H61.6592ZM154.336 295.97C157.935 295.97 160.687 298.723 160.687 302.321V314.652C160.687 318.251 157.935 321.004 154.336 321.004C150.737 321.004 147.984 318.251 147.984 314.652V302.321C147.984 298.722 150.737 295.97 154.336 295.97ZM271.678 320.633H283.639V308.672H271.678V320.633ZM296.341 320.633H308.306V308.672H296.341V320.633ZM351.65 295.97C355.158 295.97 358.001 298.814 358.001 302.321C358.001 305.829 355.158 308.672 351.65 308.672C348.143 308.672 345.299 305.829 345.299 302.321C345.299 298.814 348.143 295.97 351.65 295.97ZM234.681 308.302H246.642V296.341H234.681V308.302ZM166.669 283.639C170.177 283.639 173.02 286.482 173.021 289.989C173.021 293.497 170.177 296.341 166.669 296.341C163.161 296.341 160.318 293.497 160.318 289.989C160.318 286.482 163.161 283.639 166.669 283.639ZM339.32 283.639C342.828 283.639 345.671 286.482 345.671 289.989C345.671 293.497 342.828 296.341 339.32 296.341C335.813 296.341 332.969 293.497 332.969 289.989C332.969 286.482 335.813 283.639 339.32 283.639ZM259.344 295.97H295.973V271.676H295.972V259.344H259.344V295.97ZM277.66 271.305C281.168 271.305 284.011 274.149 284.011 277.656C284.011 281.164 281.167 284.007 277.66 284.007C274.153 284.007 271.309 281.164 271.309 277.656C271.309 274.149 274.153 271.305 277.66 271.305ZM351.65 258.974C355.249 258.974 358.001 261.725 358.001 265.324C358.001 268.923 355.249 271.675 351.65 271.675H339.32C335.721 271.675 332.969 268.923 332.969 265.324C332.969 261.725 335.721 258.974 339.32 258.974H351.65ZM6.35156 197.312C9.95048 197.313 12.7021 200.065 12.7021 203.664V252.992C12.7021 256.591 9.95048 259.344 6.35156 259.344C2.75263 259.344 0 256.591 0 252.992V203.664C0 200.065 2.75263 197.312 6.35156 197.312ZM43.3486 135.653C46.9474 135.653 49.699 138.405 49.6992 142.004V147.985H61.6611V147.984H74.3633V147.985H80.3457C83.9445 147.986 86.6963 150.737 86.6963 154.336C86.6963 157.935 83.9445 160.686 80.3457 160.687H74.3633V166.668C74.3632 170.267 71.6113 173.018 68.0127 173.019H62.0293V209.646H68.0127C71.6114 209.646 74.3633 212.397 74.3633 215.996V221.977H86.3242V210.016H80.3457C76.7468 210.016 73.9941 207.263 73.9941 203.664C73.9942 200.065 76.7468 197.313 80.3457 197.313H86.3242V191.333C86.3242 187.734 89.0761 184.982 92.6748 184.981H98.6582V178.999C98.6583 175.4 101.41 172.648 105.009 172.648H123.321V166.668C123.321 163.069 126.073 160.317 129.672 160.316C133.271 160.316 136.023 163.069 136.023 166.668V178.999C136.023 182.598 133.271 185.351 129.672 185.351H111.359V191.333C111.359 194.932 108.608 197.684 105.009 197.684H99.0264V209.646H105.009C108.608 209.646 111.359 212.397 111.359 215.996V221.977H117.343C120.941 221.977 123.693 224.729 123.693 228.327C123.693 231.926 120.941 234.678 117.343 234.679H62.0293V240.661C62.0292 244.26 59.2774 247.012 55.6787 247.012H49.6992V252.992C49.6992 256.591 46.9475 259.344 43.3486 259.344H31.0146C27.4159 259.344 24.6641 256.591 24.6641 252.992V240.661C24.6641 237.062 27.4159 234.31 31.0146 234.31H49.3271V210.016H31.0146C27.4159 210.015 24.6641 207.263 24.6641 203.664V191.333C24.6641 187.734 27.4159 184.982 31.0146 184.981C34.6136 184.981 37.3662 187.734 37.3662 191.333V197.313H49.3271V173.019H31.0146C27.416 173.018 24.6643 170.267 24.6641 166.668V160.687H18.6855C15.0866 160.687 12.334 157.935 12.334 154.336C12.334 150.737 15.0866 147.985 18.6855 147.985H24.6641V142.004C24.6642 138.405 27.416 135.653 31.0146 135.653H43.3486ZM191.332 209.645C194.931 209.645 197.684 212.397 197.684 215.996V221.977H203.666C207.265 221.977 210.016 224.728 210.017 228.327V252.992C210.017 256.591 207.265 259.344 203.666 259.344C200.067 259.344 197.314 256.591 197.314 252.992V246.642H197.315V234.679H191.332C187.733 234.678 184.981 231.926 184.981 228.327V215.996C184.981 212.397 187.733 209.645 191.332 209.645ZM326.986 246.642C330.494 246.642 333.338 249.485 333.338 252.992C333.338 256.5 330.494 259.344 326.986 259.344C323.479 259.344 320.636 256.5 320.636 252.992C320.636 249.485 323.479 246.642 326.986 246.642ZM129.672 234.31C133.179 234.31 136.023 237.154 136.023 240.661C136.023 244.169 133.179 247.012 129.672 247.012C126.164 247.012 123.321 244.169 123.321 240.661C123.321 237.154 126.164 234.31 129.672 234.31ZM351.65 234.31C355.249 234.31 358.001 237.062 358.001 240.661C358.001 244.26 355.249 247.012 351.65 247.012H339.32C335.721 247.012 332.969 244.26 332.969 240.661C332.969 237.062 335.721 234.31 339.32 234.31H351.65ZM228.329 197.313C231.928 197.313 234.681 200.065 234.681 203.664V209.645H240.663C244.262 209.645 247.014 212.397 247.014 215.996C247.014 219.595 244.262 222.347 240.663 222.347H234.681V228.327C234.681 231.926 231.928 234.679 228.329 234.679C224.73 234.679 221.979 231.926 221.979 228.327V203.664C221.979 200.065 224.73 197.314 228.329 197.313ZM154.336 160.316C157.935 160.317 160.687 163.069 160.687 166.668V184.981H166.669C170.268 184.981 173.021 187.734 173.021 191.333C173.02 194.932 170.268 197.684 166.669 197.684H160.687V203.664C160.687 207.263 157.935 210.015 154.336 210.016H148.356V215.996C148.356 219.595 145.605 222.347 142.006 222.347H129.672C126.073 222.347 123.321 219.595 123.321 215.996C123.321 212.397 126.073 209.645 129.672 209.645H135.654V203.664C135.654 200.065 138.407 197.313 142.006 197.313H147.984V166.668C147.984 163.069 150.737 160.316 154.336 160.316ZM308.674 221.977H320.636V210.016H308.674V221.977ZM117.343 197.313C120.85 197.314 123.693 200.157 123.693 203.664C123.693 207.171 120.85 210.015 117.343 210.016C113.835 210.016 110.991 207.172 110.991 203.664C110.991 200.157 113.835 197.313 117.343 197.313ZM179.003 197.313C182.51 197.314 185.353 200.157 185.354 203.664C185.354 207.172 182.51 210.015 179.003 210.016C175.495 210.016 172.651 207.172 172.651 203.664C172.651 200.157 175.495 197.313 179.003 197.313ZM252.993 197.313C256.501 197.314 259.344 200.157 259.344 203.664C259.344 207.172 256.501 210.015 252.993 210.016C249.486 210.016 246.642 207.172 246.642 203.664C246.642 200.157 249.486 197.313 252.993 197.313ZM203.666 197.312C207.173 197.313 210.017 200.157 210.017 203.664C210.017 207.172 207.173 210.015 203.666 210.015C200.158 210.015 197.314 207.172 197.314 203.664C197.314 200.156 200.158 197.312 203.666 197.312ZM191.332 184.981C194.84 184.981 197.684 187.825 197.684 191.333C197.683 194.84 194.839 197.684 191.332 197.684C187.825 197.683 184.982 194.84 184.981 191.333C184.981 187.826 187.825 184.982 191.332 184.981ZM289.989 98.6562C293.588 98.6562 296.341 101.409 296.341 105.008V110.988H320.636V105.008C320.636 101.409 323.388 98.6564 326.986 98.6562H351.65C355.249 98.6564 358.001 101.409 358.001 105.008V117.339C358.001 120.938 355.249 123.69 351.65 123.69C348.051 123.69 345.299 120.938 345.299 117.339V111.358H333.338V129.671C333.338 133.27 330.585 136.021 326.986 136.021C323.388 136.021 320.636 133.27 320.636 129.671V123.69H284.011V135.653H314.657C318.256 135.654 321.008 138.405 321.008 142.004C321.008 145.603 318.256 148.355 314.657 148.355H296.341V154.336C296.341 157.935 293.588 160.687 289.989 160.687C286.391 160.686 283.639 157.935 283.639 154.336V148.355H271.678V160.316H277.66C281.259 160.317 284.011 163.069 284.011 166.668V172.648H289.989C293.588 172.648 296.341 175.4 296.341 178.999C296.341 182.598 293.588 185.351 289.989 185.351H284.011V191.333C284.011 194.932 281.259 197.683 277.66 197.684C274.061 197.684 271.309 194.932 271.309 191.333V173.019H259.344V178.999C259.344 182.598 256.592 185.35 252.993 185.351C249.394 185.351 246.642 182.598 246.642 178.999V173.019H222.351V178.999C222.351 182.598 219.599 185.35 216 185.351C212.401 185.351 209.648 182.598 209.648 178.999V166.668C209.648 163.069 212.401 160.316 216 160.316H246.642V148.355H240.663C237.064 148.355 234.312 145.603 234.312 142.004C234.312 138.405 237.064 135.653 240.663 135.653H258.976V105.008C258.976 101.409 261.727 98.6564 265.326 98.6562H289.989ZM18.6855 172.648C22.1929 172.649 25.0361 175.492 25.0361 178.999C25.0361 182.506 22.1929 185.35 18.6855 185.351C15.178 185.351 12.334 182.507 12.334 178.999C12.334 175.492 15.178 172.648 18.6855 172.648ZM80.3457 172.648C83.8531 172.649 86.6962 175.492 86.6963 178.999C86.6963 182.506 83.8532 185.35 80.3457 185.351C76.8381 185.351 73.9941 182.507 73.9941 178.999C73.9942 175.492 76.8382 172.648 80.3457 172.648ZM179.003 172.648C182.51 172.649 185.353 175.492 185.354 178.999C185.354 182.506 182.51 185.35 179.003 185.351C175.495 185.351 172.651 182.507 172.651 178.999C172.651 175.492 175.495 172.648 179.003 172.648ZM92.6748 160.316C96.1824 160.316 99.0264 163.16 99.0264 166.668C99.0261 170.175 96.1822 173.019 92.6748 173.019C89.1676 173.018 86.3245 170.175 86.3242 166.668C86.3242 163.161 89.1674 160.317 92.6748 160.316ZM191.332 160.316C194.84 160.316 197.684 163.16 197.684 166.668C197.683 170.175 194.839 173.019 191.332 173.019C187.825 173.018 184.982 170.175 184.981 166.668C184.981 163.161 187.825 160.317 191.332 160.316ZM314.657 160.316C318.256 160.317 321.008 163.069 321.008 166.668C321.008 170.267 318.256 173.018 314.657 173.019H302.323C298.724 173.019 295.972 170.267 295.972 166.668C295.972 163.069 298.724 160.316 302.323 160.316H314.657ZM339.32 135.653C342.919 135.653 345.671 138.405 345.671 142.004V147.985H351.65C355.249 147.986 358.001 150.737 358.001 154.336V166.668C358.001 170.267 355.249 173.018 351.65 173.019H339.32C335.722 173.019 332.969 170.267 332.969 166.668V160.687H326.986C323.388 160.686 320.636 157.935 320.636 154.336C320.636 150.737 323.388 147.986 326.986 147.985H332.969V142.004C332.969 138.405 335.722 135.653 339.32 135.653ZM105.009 147.984C108.516 147.984 111.359 150.828 111.359 154.336C111.359 157.843 108.516 160.686 105.009 160.687C101.501 160.687 98.6574 157.843 98.6572 154.336C98.6572 150.828 101.501 147.984 105.009 147.984ZM173.021 147.985H179.003C182.602 147.986 185.354 150.737 185.354 154.336C185.353 157.935 182.602 160.686 179.003 160.687H166.669C163.07 160.686 160.318 157.935 160.318 154.336C160.318 150.737 163.07 147.985 166.669 147.984H173.021V147.985ZM203.666 24.6631C207.265 24.6631 210.016 27.415 210.017 31.0137V36.9961H216C219.599 36.9963 222.351 39.7489 222.351 43.3477C222.351 46.9464 219.599 49.698 216 49.6982H210.017V110.988H216C219.599 110.989 222.35 113.74 222.351 117.339C222.351 120.938 219.599 123.69 216 123.69H210.017V135.653H216C219.599 135.654 222.35 138.405 222.351 142.004C222.351 145.603 219.599 148.355 216 148.355H210.017V154.336C210.016 157.935 207.265 160.686 203.666 160.687C200.067 160.687 197.315 157.935 197.314 154.336V147.984H197.315V123.69H185.354V129.671C185.353 133.27 182.602 136.021 179.003 136.021H166.669C163.07 136.021 160.318 133.27 160.318 129.671C160.318 126.072 163.07 123.319 166.669 123.319H172.651V117.339C172.652 113.74 175.404 110.988 179.003 110.988H184.981V92.6758C184.982 89.0771 187.733 86.3254 191.332 86.3252H197.315V74.3623H191.332C187.733 74.3621 184.981 71.6095 184.981 68.0107C184.981 64.412 187.733 61.6604 191.332 61.6602H197.314V49.6982H166.669C163.07 49.6982 160.318 46.9465 160.318 43.3477C160.318 39.7488 163.07 36.9962 166.669 36.9961H197.315V31.0137C197.316 27.415 200.067 24.6631 203.666 24.6631ZM92.6748 135.653C96.1823 135.653 99.0262 138.497 99.0264 142.004C99.0264 145.511 96.1824 148.355 92.6748 148.355C89.1674 148.355 86.3242 145.511 86.3242 142.004C86.3244 138.497 89.1675 135.654 92.6748 135.653ZM129.672 123.319C133.271 123.319 136.023 126.072 136.023 129.671V135.653H142.006C145.605 135.653 148.356 138.405 148.356 142.004C148.356 145.603 145.605 148.355 142.006 148.355H117.343C113.744 148.355 110.991 145.603 110.991 142.004C110.991 138.405 113.744 135.653 117.343 135.653H123.321V129.671C123.321 126.072 126.073 123.319 129.672 123.319ZM18.6855 110.988C22.2841 110.989 25.036 113.74 25.0361 117.339V129.671C25.0361 133.27 22.2842 136.021 18.6855 136.021C15.0867 136.021 12.334 133.27 12.334 129.671V117.339C12.3341 113.74 15.0867 110.988 18.6855 110.988ZM68.0127 110.988C71.6114 110.989 74.3633 113.741 74.3633 117.34V123.319H80.3457C83.9445 123.319 86.6963 126.072 86.6963 129.671C86.6962 133.27 83.9444 136.021 80.3457 136.021H55.6787C52.0798 136.021 49.3272 133.27 49.3271 129.671C49.3271 126.072 52.0798 123.319 55.6787 123.319H61.6611V117.34C61.6611 113.741 64.4138 110.988 68.0127 110.988ZM92.6748 110.988C96.1823 110.988 99.0262 113.831 99.0264 117.339C99.0264 120.846 96.1824 123.69 92.6748 123.69C89.1674 123.69 86.3242 120.846 86.3242 117.339C86.3244 113.832 89.1675 110.989 92.6748 110.988ZM117.343 110.988C120.85 110.989 123.693 113.832 123.693 117.339C123.693 120.846 120.85 123.69 117.343 123.69C113.835 123.69 110.991 120.846 110.991 117.339C110.991 113.831 113.835 110.988 117.343 110.988ZM55.6787 98.6562C59.2774 98.6565 62.0293 101.409 62.0293 105.008C62.0292 108.606 59.2774 111.358 55.6787 111.358H31.0146C27.4159 111.358 24.6642 108.606 24.6641 105.008C24.6641 101.409 27.4159 98.6564 31.0146 98.6562H55.6787ZM80.3457 98.6562C83.8532 98.6564 86.6963 101.5 86.6963 105.008C86.6961 108.515 83.8531 111.358 80.3457 111.358C76.8382 111.358 73.9943 108.515 73.9941 105.008C73.9941 101.5 76.8381 98.6562 80.3457 98.6562ZM129.672 36.9961C133.271 36.9961 136.023 39.7487 136.023 43.3477V49.3281H154.336C157.935 49.3283 160.686 52.0802 160.687 55.6787V61.6602H166.669C170.268 61.6602 173.02 64.4121 173.021 68.0107C173.021 71.6097 170.268 74.3623 166.669 74.3623H160.687V86.3252H166.669C170.268 86.3252 173.02 89.0769 173.021 92.6758V105.008C173.02 108.607 170.268 111.358 166.669 111.358H154.336C150.737 111.358 147.985 108.607 147.984 105.008V99.0273H111.359V105.008C111.359 108.606 108.608 111.358 105.009 111.358C101.41 111.358 98.6574 108.607 98.6572 105.008V98.6562H98.6582V74.3623H98.6572V68.0107C98.6575 64.4121 101.41 61.6602 105.009 61.6602H117.343C120.941 61.6604 123.693 64.412 123.693 68.0107C123.693 71.6095 120.941 74.3621 117.343 74.3623H111.359V86.3252H123.321V80.3428C123.321 76.744 126.073 73.9914 129.672 73.9912C133.271 73.9912 136.023 76.7439 136.023 80.3428V86.3252H147.984V62.0303H129.672C126.073 62.0301 123.321 59.2775 123.321 55.6787V43.3477C123.321 39.7488 126.073 36.9962 129.672 36.9961ZM228.329 98.6562C231.837 98.6562 234.681 101.5 234.681 105.008C234.681 108.515 231.837 111.358 228.329 111.358C224.822 111.358 221.979 108.515 221.979 105.008C221.979 101.5 224.822 98.6564 228.329 98.6562ZM240.663 86.3252C244.171 86.3253 247.014 89.1683 247.014 92.6758C247.014 96.1833 244.171 99.0273 240.663 99.0273C237.155 99.0273 234.312 96.1834 234.312 92.6758C234.312 89.1683 237.156 86.3252 240.663 86.3252ZM179.003 73.9912C182.51 73.9914 185.354 76.8353 185.354 80.3428C185.353 83.8501 182.51 86.6932 179.003 86.6934C175.495 86.6934 172.652 83.8502 172.651 80.3428C172.651 76.8352 175.495 73.9912 179.003 73.9912ZM240.663 12.3311C244.262 12.3311 247.014 15.0838 247.014 18.6826V24.6631H252.993C256.592 24.6633 259.344 27.4151 259.344 31.0137C259.344 34.6125 256.592 37.365 252.993 37.3652H247.014V55.6787C247.014 59.2776 244.262 62.0302 240.663 62.0303H234.681V80.3428C234.68 83.9415 231.928 86.6934 228.329 86.6934C224.73 86.6932 221.979 83.9414 221.979 80.3428V55.6787C221.979 52.0801 224.73 49.3283 228.329 49.3281H234.312V37.3652H228.329C224.73 37.3651 221.979 34.6125 221.979 31.0137C221.979 27.4151 224.73 24.6632 228.329 24.6631H234.312V18.6826C234.312 15.0837 237.064 12.3311 240.663 12.3311ZM252.993 73.9912C256.501 73.9914 259.344 76.8353 259.344 80.3428C259.344 83.8501 256.5 86.6932 252.993 86.6934C249.486 86.6934 246.642 83.8502 246.642 80.3428C246.642 76.8352 249.486 73.9912 252.993 73.9912ZM86.3252 86.3242H0V0H86.3252V86.3242ZM357.635 86.3242H271.311V0H357.635V86.3242ZM12.333 73.9922H73.9932V12.332H12.333V73.9922ZM283.643 73.9922H345.303V12.332H283.643V73.9922ZM61.6592 61.6582H24.6631V24.6621H61.6592V61.6582ZM332.969 61.6582H295.973V24.6621H332.969V61.6582ZM105.009 0C108.608 7.01554e-05 111.359 2.75185 111.359 6.35059V12.3311H129.672C133.271 12.3311 136.023 15.0837 136.023 18.6826C136.023 22.2815 133.271 25.0332 129.672 25.0332H111.359V31.0137C111.359 34.6126 108.608 37.3652 105.009 37.3652C101.41 37.3652 98.6582 34.6126 98.6582 31.0137V25.0342H98.6572V6.35059C98.6574 2.7518 101.41 0 105.009 0ZM191.332 12.3311C194.931 12.3311 197.684 15.0837 197.684 18.6826C197.684 22.2815 194.931 25.0332 191.332 25.0332H179.003C175.404 25.0332 172.651 22.2815 172.651 18.6826C172.651 15.0837 175.404 12.3311 179.003 12.3311H191.332ZM228.329 0C231.928 0 234.681 2.7518 234.681 6.35059C234.681 9.9495 231.928 12.7021 228.329 12.7021H222.351V18.6826C222.351 22.2813 219.599 25.033 216 25.0332C212.401 25.0332 209.649 22.2815 209.648 18.6826V6.35059C209.649 2.7518 212.401 0 216 0H228.329ZM154.336 0C157.843 0.000211059 160.686 2.84327 160.687 6.35059C160.687 9.85803 157.843 12.7019 154.336 12.7021C150.828 12.7021 147.984 9.85816 147.984 6.35059C147.985 2.84314 150.828 0 154.336 0ZM252.993 0C256.5 0.000208948 259.344 2.84326 259.344 6.35059C259.344 9.85803 256.501 12.7019 252.993 12.7021C249.486 12.7021 246.642 9.85816 246.642 6.35059C246.642 2.84314 249.486 0 252.993 0Z" fill="black"/>
</mask>
<g mask="url(#mask0_362_541)">
<rect x="-0.191162" y="-0.725098" width="358.514" height="358.512" fill="#1C171D"/>
<g filter="url(#filter0_f_362_541)">
<rect width="430.973" height="285.585" rx="142.793" transform="matrix(0.819298 -0.573369 0.577603 0.816318 69.2424 164.9)" fill="#ED4B9E"/>
</g>
<g filter="url(#filter1_f_362_541)">
<rect x="99.0723" y="269.035" width="176.337" height="176.337" rx="88.1685" fill="#BF6AA0"/>
</g>
<g filter="url(#filter2_f_362_541)">
<rect x="-10.7009" y="202.47" width="116.78" height="116.78" rx="58.3898" fill="#BF6AA0"/>
</g>
<g filter="url(#filter3_f_362_541)">
<rect width="218.537" height="272.255" rx="109.268" transform="matrix(0.498339 -0.866982 0.869335 0.494224 -151 88.4675)" fill="#31D0AA"/>
</g>
</g>
<defs>
<filter id="filter0_f_362_541" x="5.5575" y="-146.226" width="645.42" height="608.274" filterUnits="userSpaceOnUse" color-interpolation-filters="sRGB">
<feFlood flood-opacity="0" result="BackgroundImageFix"/>
<feBlend mode="normal" in="SourceGraphic" in2="BackgroundImageFix" result="shape"/>
<feGaussianBlur stdDeviation="60" result="effect1_foregroundBlur_362_541"/>
</filter>
<filter id="filter1_f_362_541" x="49.0723" y="219.035" width="276.337" height="276.337" filterUnits="userSpaceOnUse" color-interpolation-filters="sRGB">
<feFlood flood-opacity="0" result="BackgroundImageFix"/>
<feBlend mode="normal" in="SourceGraphic" in2="BackgroundImageFix" result="shape"/>
<feGaussianBlur stdDeviation="25" result="effect1_foregroundBlur_362_541"/>
</filter>
<filter id="filter2_f_362_541" x="-210.701" y="2.47028" width="516.78" height="516.78" filterUnits="userSpaceOnUse" color-interpolation-filters="sRGB">
<feFlood flood-opacity="0" result="BackgroundImageFix"/>
<feBlend mode="normal" in="SourceGraphic" in2="BackgroundImageFix" result="shape"/>
<feGaussianBlur stdDeviation="100" result="effect1_foregroundBlur_362_541"/>
</filter>
<filter id="filter3_f_362_541" x="-211.066" y="-161.327" width="465.719" height="444.676" filterUnits="userSpaceOnUse" color-interpolation-filters="sRGB">
<feFlood flood-opacity="0" result="BackgroundImageFix"/>
<feBlend mode="normal" in="SourceGraphic" in2="BackgroundImageFix" result="shape"/>
<feGaussianBlur stdDeviation="50" result="effect1_foregroundBlur_362_541"/>
</filter>
</defs>
</svg>
