<svg width="358" height="359" viewBox="0 0 358 359" fill="none" xmlns="http://www.w3.org/2000/svg">
<mask id="mask0_380_1546" style="mask-type:alpha" maskUnits="userSpaceOnUse" x="0" y="0" width="358" height="359">
<path d="M67.7295 359H0V291.081H67.7295V359ZM116.108 359H77.4062V349.298H116.108V359ZM145.136 339.595H154.811V349.297H145.136V359H125.783V349.298L135.46 349.297V339.595H116.108V329.892H145.136V339.595ZM164.487 359H154.811V349.297H164.487V359ZM203.189 359H183.838V349.298H203.189V359ZM241.892 300.784H232.217V310.486H241.892V320.189H232.217V329.892H241.892V359H222.54V339.595H212.864V329.892H193.513V310.486H203.189V300.784H212.864V320.189H222.54V291.081H241.892V300.784ZM261.243 359H251.567V349.298L261.243 349.297V359ZM280.594 349.298V359H270.919V349.297L280.594 349.298ZM309.621 359H299.946V349.298L309.621 349.297V359ZM338.648 339.595H348.324V320.189H358V359H348.324V349.297H309.621V329.892H319.298V320.189H338.648V339.595ZM174.162 349.297H164.487V320.189H174.162V349.297ZM270.919 349.297H261.243V339.595H270.919V349.297ZM10.1592 348.812H57.5703V301.269H10.1592V348.812ZM48.3789 339.595H19.3516V310.486H48.3789V339.595ZM58.0537 116.433H67.7295V126.135H58.0537V135.838H67.7295V126.135H87.0811V135.838H77.4062V145.541H48.3789V135.838H38.7021V145.541H29.0273V155.243H9.67578V164.946H19.3516V213.459H9.67578V232.865H19.3516V242.567H29.0273V252.271H38.7021V223.162H19.3516V213.459H38.7021V203.757H48.3789V213.459L67.7295 213.46V223.162H48.3789V232.865H67.7295V223.162H77.4062V213.46L87.0811 213.459V232.865H77.4062V242.567H58.0537V252.271H48.3789V261.973H58.0537V252.271H77.4062V242.567H87.0811V232.865H106.433V252.271H96.7568V261.973H116.108V281.378H106.433V300.784H116.108V291.081H125.783V320.189H106.433V339.595H96.7568V310.486H87.0811V329.892H77.4062V271.676H87.0811V291.081H96.7568V271.676H87.0811V261.973H58.0537V271.676H38.7021V281.378H19.3516V261.973H9.67578V281.378H0V203.757H9.67578V194.054H0V184.352H9.67578V174.648H0V135.838H29.0273V116.433H38.7021V126.135H48.3789V106.729H58.0537V116.433ZM290.271 261.973H319.298V271.676H328.973V261.973H338.648V281.378H348.324V291.081H328.973V281.378H319.298V320.189H299.946V329.892H290.271V339.595H270.919V329.892H261.243V320.189H251.567V310.486H261.243V300.784H270.919V281.378H261.243V271.676H280.594V252.271H290.271V261.973ZM193.513 271.676H203.189V281.378H222.54V291.081H193.513V310.486H183.838V300.784H154.811V310.486H164.487V320.189H135.46V310.486H145.136V271.676H154.811V291.081H164.487V281.379L174.162 281.378V291.081H183.838V281.378H174.162V261.973H193.513V271.676ZM183.838 320.189H174.162V310.486H183.838V320.189ZM348.324 320.189H338.648V300.784H348.324V320.189ZM251.567 310.486H241.892V300.784H251.567V310.486ZM280.594 310.486H309.621V281.378H280.594V310.486ZM299.946 300.784H290.271V291.081H299.946V300.784ZM358 300.784H348.324V291.081H358V300.784ZM251.567 291.081H241.892V271.676H251.567V291.081ZM67.7295 281.378H58.0537V271.676H67.7295V281.378ZM135.46 281.378H125.783V271.676H135.46V281.378ZM232.217 281.378H222.54V271.676H232.217V281.378ZM358 281.378H348.324V271.676H358V281.378ZM164.487 271.676H154.811V261.973H164.487V271.676ZM280.594 252.271H270.919V261.973H261.243V271.676H251.567V252.271H261.243V242.567H280.594V252.271ZM135.46 261.973H125.783V252.271H116.108V242.567H135.46V261.973ZM154.811 261.973H145.136V252.271H154.811V261.973ZM174.162 261.973H164.487V252.271H174.162V261.973ZM212.864 261.973H203.189V252.271H212.864V261.973ZM358 261.973H338.648V252.271H358V261.973ZM193.513 252.271H174.162V242.567H193.513V252.271ZM232.217 164.946H222.54V174.648H251.567V164.946H270.919V174.648H280.594V184.352H270.919V194.054H280.594V184.352H290.271V194.054H309.621V184.352H299.946V164.946H309.621V174.648H319.298V164.946H328.973V203.757H319.298V213.459H309.621V203.757H270.919V213.459H309.621V223.162H319.298V213.459H328.973V223.162H348.324V232.865H299.946V223.162H270.919V232.865H261.243V223.162H241.892V232.865H232.217V252.271H222.54V242.567H193.513V232.865H174.162V223.162H203.189V232.865H212.864V223.162H203.189V203.757H212.864V213.459H222.54V203.757H232.217V213.459H251.567V194.054H261.243V174.648H251.567V194.054H241.892V203.757H232.217V194.054H222.54V184.352H212.864V155.243H232.217V164.946ZM328.973 252.271H309.621V242.567H328.973V252.271ZM145.136 232.865H154.811V242.567H135.46V223.162H145.136V232.865ZM174.162 242.567H164.487V232.865H174.162V242.567ZM251.567 242.567H241.892V232.865H251.567V242.567ZM299.946 242.567H290.271V232.865H299.946V242.567ZM87.0811 155.243H96.7568V174.648H106.433V184.352H116.108V194.054H96.7568V203.757H106.433V213.459H116.108V194.054H125.783V232.865H116.108V223.162H96.7568V213.459H87.0811V174.648H77.4062V164.946H58.0537V155.243H77.4062V145.541H87.0811V155.243ZM164.487 194.054H174.162V213.459H164.487V203.757H154.811V213.459H164.487V223.162H145.136V213.459H135.46V194.054H145.136V203.757H154.811V194.054H145.136V184.352H154.811V174.648H164.487V194.054ZM358 223.162H348.324V213.46H358V223.162ZM193.513 184.352H203.189V203.757H193.513V213.459H183.838V174.648H193.513V184.352ZM338.648 213.459H328.973V203.757H338.648V213.459ZM48.3789 184.352H58.0537V194.054H77.4062V203.757H48.3789V194.054H38.7021V203.757H29.0273V184.352H38.7021V174.648H48.3789V184.352ZM135.46 194.054H125.783V184.352H135.46V194.054ZM358 194.054H348.324V174.648H358V194.054ZM77.4062 184.352H58.0537V174.648H77.4062V184.352ZM96.7568 19.4053H116.108V9.70312H125.783V38.8105H135.46V48.5137H145.136V67.9189H154.811V87.3242H135.46V97.0273H154.811V87.3242H164.487V106.729H174.162V116.433H164.487V145.541H145.136V184.352H135.46V164.946H125.783V155.243H135.46V135.838H145.136V116.433H154.811V106.729H145.136V116.433H135.46V106.729H125.783V87.3242H116.108V106.729H77.4062V116.433H67.7295V106.729H58.0537V97.0273H67.7295V87.3242H58.0537V97.0273H48.3789V87.3242H38.7021V97.0273H29.0273V106.729H19.3516V126.135H9.67578V116.433H0V97.0273H19.3516V87.3242H29.0273V77.6221H96.7568V58.2158H106.433V67.9189H116.108V58.2158H125.783V67.9189H135.46V58.2158H125.783V48.5137H96.7568V38.8105H87.0811V29.1084H77.4062V0H96.7568V19.4053ZM38.7021 174.648H29.0273V155.243H38.7021V174.648ZM58.0537 174.648H48.3789V164.946H58.0537V174.648ZM183.838 164.946H164.487V155.243H183.838V164.946ZM251.567 164.946H241.892V155.243H251.567V164.946ZM299.946 164.946H290.271V155.243H299.946V164.946ZM280.594 77.6221H290.271V87.3242H309.621V77.6221H319.298V106.729H348.324V97.0273H358V126.135H348.324V116.433H328.973V135.838H358V145.541H348.324V155.243H338.648V164.946H328.973V155.243H319.298V145.541H309.621V126.135H319.298V116.433H309.621V126.135H290.271V116.433H299.946V106.729H280.594V135.838H290.271V155.243H280.594V145.541H270.919V155.243H261.243V116.433H251.567V106.729H261.243V87.3242H251.567V77.6221H261.243V67.9189H270.919V58.2158H280.594V77.6221ZM358 164.946H348.324V155.243H358V164.946ZM125.783 155.243H116.108V145.541H125.783V155.243ZM241.892 126.135H232.217V135.838H222.54V145.541H203.189V155.243H183.838V145.541H174.162V135.838H212.864V126.135H222.54V116.433H232.217V106.729H241.892V126.135ZM241.892 155.243H232.217V145.541H241.892V155.243ZM309.621 155.243H299.946V145.541H309.621V155.243ZM251.567 145.541H241.892V126.135H251.567V145.541ZM106.433 135.838H96.7568V126.135H106.433V135.838ZM135.46 135.838H116.108V126.135H125.783V116.433H135.46V135.838ZM116.108 126.135H106.433V116.433H116.108V126.135ZM183.838 126.135H174.162V116.433H183.838V126.135ZM203.189 126.135H193.513V116.433H183.838V97.0273H203.189V126.135ZM125.783 116.433H116.108V106.729H125.783V116.433ZM232.217 106.729H212.864V97.0273H203.189V87.3242H232.217V106.729ZM251.567 106.729H241.892V87.3242H251.567V106.729ZM77.4062 97.0273H87.0811V87.3242H77.4062V97.0273ZM96.7568 97.0273H106.433V87.3242H96.7568V97.0273ZM183.838 97.0273H174.162V87.3242H183.838V97.0273ZM270.919 97.0273H280.594V87.3242H270.919V97.0273ZM358 87.3242H348.324V97.0273H338.648V87.3242H328.973V77.6221H358V87.3242ZM9.67578 87.3242H0V77.6221H9.67578V87.3242ZM193.513 87.3242H183.838V77.6221H193.513V87.3242ZM241.892 87.3242H232.217V77.6221H241.892V87.3242ZM183.838 77.6221H164.487V67.9189H174.162V58.2158H183.838V77.6221ZM212.864 58.2158H203.189V77.6221H193.513V48.5137H212.864V58.2158ZM232.217 77.6221H222.54V67.9189H232.217V77.6221ZM251.567 77.6221H241.892V67.9189H251.567V77.6221ZM67.7295 67.9189H0V0H67.7295V67.9189ZM87.0811 67.9189H77.4062V58.2158H87.0811V67.9189ZM164.487 67.9189H154.811V58.2158H164.487V67.9189ZM222.54 67.9189H212.864V58.2158H222.54V67.9189ZM241.892 67.9189H232.217V58.2158H241.892V67.9189ZM212.864 29.1084H222.54V19.4053H232.217V29.1084H241.892V19.4053H251.567V38.8105H261.243V67.9189H251.567V48.5137H241.892V38.8105H193.513V29.1084H203.189V19.4053H212.864V29.1084ZM358 67.9189H290.271V0H358V67.9189ZM232.217 58.2158H222.54V48.5137H232.217V58.2158ZM10.1592 57.7314H57.5703V10.1875H10.1592V57.7314ZM300.43 57.7314H347.841V10.1875H300.43V57.7314ZM48.3789 48.5137H19.3516V19.4053H48.3789V48.5137ZM87.0811 48.5137H77.4062V38.8105H87.0811V48.5137ZM174.162 38.8105H164.487V48.5137H145.136V29.1084H174.162V38.8105ZM193.513 48.5137H183.838V38.8105H193.513V48.5137ZM280.594 48.5137H270.919V38.8105H280.594V48.5137ZM338.648 48.5137H309.621V19.4053H338.648V48.5137ZM164.487 9.70312H174.162V19.4053H145.136V29.1084H135.46V9.70312H145.136V0H164.487V9.70312ZM222.54 19.4053H212.864V9.70312H193.513V29.1084H183.838V0H222.54V19.4053ZM270.919 29.1084H261.243V19.4053H270.919V29.1084ZM261.243 19.4053H251.567V9.70312H261.243V19.4053ZM280.594 19.4053H270.919V0H280.594V19.4053ZM116.108 9.70312H106.433V0H116.108V9.70312ZM251.567 9.70312H241.892V0H251.567V9.70312Z" fill="black"/>
</mask>
<g mask="url(#mask0_380_1546)">
<rect x="-0.724686" y="0.884766" width="357.516" height="358.512" fill="#1C171D"/>
<g filter="url(#filter0_f_380_1546)">
<rect width="430.168" height="285.32" rx="142.66" transform="matrix(0.818545 -0.574442 0.57653 0.817076 68.5155 166.509)" fill="#ED4B9E"/>
</g>
<g filter="url(#filter1_f_380_1546)">
<rect x="98.2622" y="270.645" width="175.846" height="176.337" rx="87.923" fill="#BF6AA0"/>
</g>
<g filter="url(#filter2_f_380_1546)">
<rect x="-11.2052" y="204.08" width="116.454" height="116.78" rx="58.2271" fill="#BF6AA0"/>
</g>
<g filter="url(#filter3_f_380_1546)">
<rect width="218.386" height="271.682" rx="109.193" transform="matrix(0.497294 -0.867582 0.868741 0.495266 -151.113 90.0774)" fill="#31D0AA"/>
</g>
</g>
<defs>
<filter id="filter0_f_380_1546" x="4.69368" y="-144.584" width="644.251" height="608.208" filterUnits="userSpaceOnUse" color-interpolation-filters="sRGB">
<feFlood flood-opacity="0" result="BackgroundImageFix"/>
<feBlend mode="normal" in="SourceGraphic" in2="BackgroundImageFix" result="shape"/>
<feGaussianBlur stdDeviation="60" result="effect1_foregroundBlur_380_1546"/>
</filter>
<filter id="filter1_f_380_1546" x="48.2622" y="220.645" width="275.846" height="276.337" filterUnits="userSpaceOnUse" color-interpolation-filters="sRGB">
<feFlood flood-opacity="0" result="BackgroundImageFix"/>
<feBlend mode="normal" in="SourceGraphic" in2="BackgroundImageFix" result="shape"/>
<feGaussianBlur stdDeviation="25" result="effect1_foregroundBlur_380_1546"/>
</filter>
<filter id="filter2_f_380_1546" x="-211.205" y="4.08008" width="516.454" height="516.78" filterUnits="userSpaceOnUse" color-interpolation-filters="sRGB">
<feFlood flood-opacity="0" result="BackgroundImageFix"/>
<feBlend mode="normal" in="SourceGraphic" in2="BackgroundImageFix" result="shape"/>
<feGaussianBlur stdDeviation="100" result="effect1_foregroundBlur_380_1546"/>
</filter>
<filter id="filter3_f_380_1546" x="-211.273" y="-159.678" width="464.944" height="444.599" filterUnits="userSpaceOnUse" color-interpolation-filters="sRGB">
<feFlood flood-opacity="0" result="BackgroundImageFix"/>
<feBlend mode="normal" in="SourceGraphic" in2="BackgroundImageFix" result="shape"/>
<feGaussianBlur stdDeviation="50" result="effect1_foregroundBlur_380_1546"/>
</filter>
</defs>
</svg>
