<svg width="358" height="359" viewBox="0 0 358 359" fill="none" xmlns="http://www.w3.org/2000/svg">
<mask id="mask0_380_1411" style="mask-type:alpha" maskUnits="userSpaceOnUse" x="0" y="0" width="358" height="359">
<path d="M67.7295 359H0V291.081H67.7295V359ZM87.0811 359H77.4062V349.297H87.0811V359ZM183.838 329.893H174.162V349.297H164.487V359H116.108V349.297H135.46V339.595H116.108V329.892L154.811 329.893V320.189H183.838V329.893ZM203.189 359H193.513V349.297H183.838V329.893H203.189V359ZM241.892 359H222.54V349.297H232.217V339.595H241.892V359ZM261.243 359H251.567V349.297H261.243V359ZM280.594 359H270.919V349.297H280.594V359ZM309.621 359H299.946V349.297H309.621V359ZM358 359H348.324V349.297H338.648V359H328.973V349.297H309.621V329.892L319.298 329.893V339.595H348.324V320.189H358V359ZM203.189 252.271H212.864V261.973H203.189V291.081H193.513V310.486H154.811V300.784H145.135V320.189H106.433V310.486H96.7568V329.893L106.433 329.892V349.297H96.7568V339.595H87.0811V329.893H77.4062V281.378H87.0811V291.081H96.7568V300.784H87.0811V310.486H96.7568V300.784H106.433V281.378H125.783V271.676H135.46V261.973H154.811V271.676H145.135V281.378H154.811V291.081H164.487V300.784H183.838V281.378H193.513V261.973H183.838V242.567H203.189V252.271ZM145.135 349.297H154.811V339.595H145.135V349.297ZM328.973 252.271H358V261.973H348.324V271.676H358V281.378H348.324V291.081H328.973V281.378H319.298V320.189H299.946V329.893H290.271V339.595H299.946V349.297H280.594V339.595H270.919V329.893H261.243V320.189H251.567V310.486H241.892V320.189H232.217V339.595H212.864V329.893H222.54V320.189H212.864V329.893H203.189V310.486H212.864V300.784H203.189V291.081H212.864V281.378H222.54V291.081H241.892V300.784H232.217V310.486H241.892V300.784H251.567V291.081H261.243V300.784H270.919V281.378H261.243V271.676H280.594V252.271H290.271V261.973H309.621V242.567H328.973V252.271ZM10.1592 348.812H57.5703V301.27H10.1592V348.812ZM48.3789 339.595H19.3516V310.486H48.3789V339.595ZM328.973 329.893H319.298V320.189H328.973V329.893ZM125.783 310.486H135.46V300.784H125.783V310.486ZM280.594 310.486H309.621V281.378H280.594V310.486ZM358 310.486H338.648V300.784H348.324V291.081H358V310.486ZM116.108 300.784H125.783V291.081H116.108V300.784ZM299.946 300.784H290.271V291.081H299.946V300.784ZM9.67578 242.567H19.3516V261.973H9.67578V281.378H0V203.757H9.67578V242.567ZM38.7021 281.378H29.0273V271.676H38.7021V281.378ZM67.7295 281.378H58.0537V271.676H67.7295V281.378ZM125.783 223.162H116.108V232.865H125.783V223.162H135.46V242.567H125.783V261.973H116.108V271.676H96.7568V281.378H87.0811V271.676H77.4062V242.567H96.7568V252.271H87.0811V261.973H106.433V252.271H116.108V242.567H106.433V213.46L116.108 213.459V203.757H125.783V223.162ZM183.838 281.378H174.162V261.973H183.838V281.378ZM251.567 281.378H241.892V271.676H251.567V281.378ZM29.0273 271.676H19.3516V261.973H29.0273V271.676ZM232.217 271.676H222.54V261.973H232.217V271.676ZM270.919 261.973H261.243V271.676H251.567V252.271H261.243V242.567H270.919V261.973ZM309.621 271.676H319.298V261.973H309.621V271.676ZM38.7021 261.973H29.0273V252.271H38.7021V261.973ZM48.3789 213.459H67.7295V203.757H87.0811V213.459H77.4062V232.865H67.7295V223.162H48.3789V232.865H67.7295V242.567H58.0537V252.271H67.7295V261.973H48.3789V252.271H38.7021V242.567H29.0273V232.865H19.3516V213.46L29.0273 213.459V223.162H38.7021V213.459H29.0273V203.757H38.7021V194.054H48.3789V213.459ZM251.567 194.054H241.892V184.352H232.217V194.054H241.892V203.757H232.217V213.459L241.892 213.46V242.567H232.217V252.271H222.54V232.865H212.864V242.567H203.189V232.865H183.838V242.567H164.487V252.271H174.162V261.973H154.811V223.162H135.46V213.46L145.136 213.459L145.135 203.757H135.46V194.054H154.811V213.459H183.838V223.162H174.162V232.865H183.838V223.162H212.864V213.459H222.54V184.352H212.864V174.648H251.567V194.054ZM299.946 242.567H290.271V232.865H299.946V242.567ZM290.271 194.054H299.946V184.352H328.973V194.054H319.298V213.459H309.621V203.757H270.919V213.459H309.621V223.162H319.298V213.459H328.973V223.162H348.324V232.865H299.946V223.162H290.271V232.865H280.594V223.162H270.919V232.865H251.567V223.162H261.243V213.459H251.567V194.054H261.243V203.757H270.919V184.352H290.271V194.054ZM96.7568 213.46V223.162H87.0811V213.459L96.7568 213.46ZM358 223.162H348.324V213.46H358V223.162ZM193.513 213.459H183.838V203.757H193.513V213.459ZM212.864 213.459H203.189V203.757H212.864V213.459ZM338.648 213.459H328.973V203.757H338.648V213.459ZM19.3516 184.352H38.7021V194.054H29.0273V203.757H19.3516V194.054H9.67578V174.648H19.3516V184.352ZM67.7295 203.757H58.0537V194.054H67.7295V203.757ZM106.433 184.352H116.108V203.757H106.433V194.054H77.4062V184.352H87.0811V174.648H96.7568V164.946H106.433V184.352ZM174.162 203.757H164.487V194.054H174.162V203.757ZM203.189 203.757H193.513V194.054H203.189V203.757ZM58.0537 174.648H77.4062V184.352H58.0537V194.054H48.3789V164.946H58.0537V174.648ZM358 194.054H348.324V174.648H358V194.054ZM154.811 184.352H125.783V174.648H154.811V184.352ZM212.864 58.2158H203.189V67.9189H212.864V87.3242H232.217V106.729H241.892V126.135H232.217V135.838H222.54V145.54H203.189V155.243H212.864V164.946H203.189V184.352H193.513V155.243H174.162V164.946H164.487V174.648H154.811V164.946H145.136L145.135 155.243H135.46V135.838H145.136V126.135H154.811V116.433H164.487V126.135H174.162V145.54H183.838V135.838H212.864V126.135H222.54V106.729H212.864V97.0273H193.513V87.3242H174.162V77.6221H193.513V48.5137H212.864V58.2158ZM270.919 184.352H261.243V164.946H270.919V184.352ZM280.594 77.6221H270.919V97.0273H280.594V77.6221H290.271V97.0273H299.946V87.3242H309.621V77.6221H319.298V87.3242H328.973V77.6221H358V87.3242H348.324V97.0273H338.648V106.729H348.324V97.0273H358V126.135H348.324V116.433H309.621V126.135H290.271V116.433H299.946V106.729H280.594V135.838H299.946V145.54H309.621V126.135H328.973V135.838H338.648V145.54H348.324V155.243H338.648V184.352H328.973V174.648H319.298V164.946H328.973V155.243H319.298V145.54H309.621V155.243H299.946V164.946H290.271V155.243H280.594V145.54H270.919V155.243H251.567V145.54H261.243V116.433H270.919V106.729H261.243V87.3242H251.567V77.6221H261.243V67.9189H270.919V58.2158H280.594V77.6221ZM9.67578 174.648H0V164.946H9.67578V174.648ZM125.783 174.648H116.108V164.946H125.783V174.648ZM183.838 174.648H174.162V164.946H183.838V174.648ZM309.621 174.648H299.946V164.946H309.621V174.648ZM19.3516 164.946H9.67578V145.541H19.3516V164.946ZM48.3789 164.946H38.7021V155.243H48.3789V164.946ZM67.7295 164.946H58.0537V155.243H67.7295V164.946ZM96.7568 164.946H87.0811V145.541L96.7568 145.54V164.946ZM135.46 164.946H125.783V155.243H135.46V164.946ZM241.892 155.243H251.567V164.946H222.54V155.243H232.217V145.541L241.892 145.54V155.243ZM280.594 164.946H270.919V155.243H280.594V164.946ZM358 164.946H348.324V155.243H358V164.946ZM96.7568 77.6221H106.433V87.3242H96.7568V106.729H106.433V116.433H96.7568V126.135H87.0811V106.729H48.3789V97.0273H77.4062V87.3242H38.7021V116.433H29.0273V126.135H48.3789V135.838H38.7021V155.243H29.0273V135.838H0V106.729H19.3516V97.0273H0V77.6221H9.67578V87.3242H29.0273V77.6221H87.0811V67.9189H96.7568V77.6221ZM154.811 155.243H164.487V145.54H154.811V155.243ZM77.4062 126.135H87.0811V135.838H77.4062V145.54H48.3789V135.838H67.7295V126.135H58.0537V116.433H77.4062V126.135ZM125.783 145.54H96.7568V135.838H125.783V145.54ZM251.567 145.54H241.892V126.135H251.567V145.54ZM358 145.54H348.324V135.838H358V145.54ZM125.783 116.433H135.46V135.838H125.783V126.135H106.433V116.433H116.108V106.729H125.783V116.433ZM203.189 126.135H174.162V116.433H203.189V126.135ZM154.811 116.433H145.136L145.135 106.729H154.811V116.433ZM174.162 116.433H164.487V106.729H174.162V116.433ZM261.243 116.433H251.567V106.729H261.243V116.433ZM116.108 106.729H106.433V97.0273H116.108V106.729ZM145.135 106.729H125.783V97.0273H145.135V106.729ZM251.567 106.729H241.892V87.3242H251.567V106.729ZM309.621 106.729H319.298V97.0273H309.621V106.729ZM164.487 87.3242H154.811V77.6221H145.136L145.135 87.3242H135.46V77.6221H145.136L145.135 67.9189H154.811V58.2158H164.487V87.3242ZM241.892 87.3242H232.217V77.6221H241.892V87.3242ZM116.108 77.6221H106.433V67.9189H116.108V77.6221ZM232.217 77.6221H222.54V67.9189H232.217V77.6221ZM251.567 77.6221H241.892V67.9189H251.567V77.6221ZM67.7295 67.9189H0V0H67.7295V67.9189ZM87.0811 67.9189H77.4062V58.2158H87.0811V67.9189ZM106.433 67.9189H96.7568V58.2158H106.433V67.9189ZM125.783 67.9189H116.108V48.5137H125.783V67.9189ZM145.135 67.9189H135.46V48.5137H145.135V67.9189ZM154.811 19.4053H164.487V29.1084H174.162V48.5137H183.838V67.9189H174.162V58.2158H164.487V48.5137H154.811V38.8105H145.136L145.135 19.4053H125.783V38.8105H116.108V19.4053H106.433V9.70312H125.783V0H154.811V19.4053ZM222.54 67.9189H212.864V58.2158H222.54V67.9189ZM241.892 67.9189H232.217V58.2158H241.892V67.9189ZM203.189 19.4053H212.864V29.1084H241.892V19.4053H251.567V38.8105H261.243V67.9189H251.567V58.2158H241.892V38.8105H193.513V48.5137H183.838V29.1084H193.513V9.70312H203.189V19.4053ZM358 67.9189H290.271V0H358V67.9189ZM232.217 58.2158H222.54V48.5137H232.217V58.2158ZM10.1592 57.7314H57.5703V10.1885H10.1592V57.7314ZM300.43 57.7314H347.841V10.1885H300.43V57.7314ZM48.3789 48.5137H19.3516V19.4053H48.3789V48.5137ZM96.7568 48.5137H77.4062V38.8105H96.7568V48.5137ZM280.594 48.5137H270.919V38.8105H280.594V48.5137ZM338.648 48.5137H309.621V19.4053H338.648V48.5137ZM96.7568 9.70312H87.0811V29.1084H77.4062V0H96.7568V9.70312ZM280.594 29.1084H270.919V19.4053H280.594V29.1084ZM174.162 19.4053H164.487V9.70312H174.162V19.4053ZM251.567 9.70312H241.892V19.4053H232.217V9.70312H222.54V19.4053H212.864V9.70312H203.189V0H251.567V9.70312ZM261.243 19.4053H251.567V9.70312H261.243V19.4053ZM193.513 9.70312H174.162V0H193.513V9.70312ZM270.919 9.70312H261.243V0H270.919V9.70312Z" fill="black"/>
</mask>
<g mask="url(#mask0_380_1411)">
<rect x="-0.724686" y="0.884766" width="357.516" height="358.512" fill="#1C171D"/>
<g filter="url(#filter0_f_380_1411)">
<rect width="430.168" height="285.32" rx="142.66" transform="matrix(0.818545 -0.574442 0.57653 0.817076 68.5155 166.509)" fill="#ED4B9E"/>
</g>
<g filter="url(#filter1_f_380_1411)">
<rect x="98.2622" y="270.645" width="175.846" height="176.337" rx="87.923" fill="#BF6AA0"/>
</g>
<g filter="url(#filter2_f_380_1411)">
<rect x="-11.2052" y="204.08" width="116.454" height="116.78" rx="58.2271" fill="#BF6AA0"/>
</g>
<g filter="url(#filter3_f_380_1411)">
<rect width="218.386" height="271.682" rx="109.193" transform="matrix(0.497294 -0.867582 0.868741 0.495266 -151.113 90.0774)" fill="#31D0AA"/>
</g>
</g>
<defs>
<filter id="filter0_f_380_1411" x="4.69368" y="-144.584" width="644.251" height="608.208" filterUnits="userSpaceOnUse" color-interpolation-filters="sRGB">
<feFlood flood-opacity="0" result="BackgroundImageFix"/>
<feBlend mode="normal" in="SourceGraphic" in2="BackgroundImageFix" result="shape"/>
<feGaussianBlur stdDeviation="60" result="effect1_foregroundBlur_380_1411"/>
</filter>
<filter id="filter1_f_380_1411" x="48.2622" y="220.645" width="275.846" height="276.337" filterUnits="userSpaceOnUse" color-interpolation-filters="sRGB">
<feFlood flood-opacity="0" result="BackgroundImageFix"/>
<feBlend mode="normal" in="SourceGraphic" in2="BackgroundImageFix" result="shape"/>
<feGaussianBlur stdDeviation="25" result="effect1_foregroundBlur_380_1411"/>
</filter>
<filter id="filter2_f_380_1411" x="-211.205" y="4.08008" width="516.454" height="516.78" filterUnits="userSpaceOnUse" color-interpolation-filters="sRGB">
<feFlood flood-opacity="0" result="BackgroundImageFix"/>
<feBlend mode="normal" in="SourceGraphic" in2="BackgroundImageFix" result="shape"/>
<feGaussianBlur stdDeviation="100" result="effect1_foregroundBlur_380_1411"/>
</filter>
<filter id="filter3_f_380_1411" x="-211.273" y="-159.678" width="464.944" height="444.599" filterUnits="userSpaceOnUse" color-interpolation-filters="sRGB">
<feFlood flood-opacity="0" result="BackgroundImageFix"/>
<feBlend mode="normal" in="SourceGraphic" in2="BackgroundImageFix" result="shape"/>
<feGaussianBlur stdDeviation="50" result="effect1_foregroundBlur_380_1411"/>
</filter>
</defs>
</svg>
